<svg preserveAspectRatio="xMidYMid meet" viewBox="0 0 500.000000 500.000000" height="180px" width="180px" xmlns="http://www.w3.org/2000/svg" version="1.0" style="height: 100%; width: 100%; background: r(transparent);"><g class="ldl-scale" style="transform-origin: 50% 50%; transform: rotate(0deg) scale(0.8, 0.8);"><g class="ldl-ani" style="transform: scale(0.91); transform-origin: 250px 250px; animation: 1.11111s linear 0s infinite normal forwards running breath-927bc43e-3c14-4d4d-b4bb-cbbd8135621f;">
<g class="ldl-layer"><g class="ldl-ani"><g stroke="none" fill="#00baff" transform="translate(0.000000,500.000000) scale(0.100000,-0.100000)">
<g class="ldl-layer"><g class="ldl-ani"><path id="bos-mascot" d="M1800 4337 c0 -7 -17 -33 -37 -59 -21 -25 -55 -77 -76 -115 -21 -37
-49 -84 -63 -103 -22 -29 -25 -42 -20 -79 3 -24 6 -67 7 -95 1 -51 1 -50 14
24 15 87 14 83 73 220 45 104 72 150 58 100 -17 -60 -35 -179 -36 -227 0 -28
-5 -64 -10 -79 -16 -41 -7 -38 28 9 83 111 123 177 119 194 -3 15 -6 13 -16
-11 l-11 -28 -33 25 c-40 31 -43 50 -17 123 36 101 39 114 29 114 -5 0 -9 -6
-9 -13z m-14 -255 c-3 -3 -1 -11 4 -18 8 -8 7 -16 -3 -25 -7 -8 -18 -23 -25
-34 -10 -17 -11 -13 -12 31 0 55 5 65 26 57 8 -3 12 -8 10 -11z M3124 4341
c33 -13 -267 -205 -371 -237 -46 -14 -83 -28 -80 -30 2 -2 48 5 102 16 60 12
136 20 201 20 111 0 353 -31 400 -52 28 -12 27 -13 -31 -15 -169 -7 -281 -30
-392 -79 -51 -22 -57 -39 -10 -27 65 17 159 8 252 -24 241 -83 525 -187 525
-192 0 -3 -30 -5 -67 -4 -232 8 -430 7 -426 -2 2 -7 101 -11 294 -11 l291 0
-44 19 c-100 43 -602 221 -666 237 -29 7 -51 14 -49 16 12 12 209 43 302 48
61 2 112 5 115 5 2 1 -4 7 -15 15 -56 38 -248 75 -439 85 l-130 6 90 67 c50
37 108 77 130 90 21 12 48 30 58 40 19 18 19 18 -20 17 -27 0 -33 -3 -20 -8z
M3073 4333 c4 -3 10 -3 14 0 3 4 0 7 -7 7 -7 0 -10 -3 -7 -7z M2895 4309 c-65
-15 -111 -19 -165 -15 -67 4 -77 3 -88 -14 -10 -17 -193 -160 -269 -211 -37
-25 -41 -33 -7 -16 18 9 45 27 60 40 16 12 42 31 57 40 58 37 406 159 542 190
13 3 10 5 -10 5 -16 0 -70 -8 -120 -19z m-201 -48 c3 -4 -6 -13 -19 -19 -27
-12 -33 -4 -13 16 14 14 25 15 32 3z M2305 4306 c-16 -8 -55 -25 -86 -39 -77
-35 -171 -94 -274 -171 -48 -36 -91 -66 -95 -66 -9 0 -82 -121 -77 -127 2 -2
23 21 47 52 50 65 126 127 265 217 211 137 241 140 114 11 -98 -101 -150 -163
-89 -106 46 42 111 69 455 189 l70 25 -52 -5 c-29 -3 -78 -17 -110 -32 -88
-40 -222 -84 -228 -74 -6 10 22 60 34 60 3 0 21 18 39 40 36 43 34 47 -13 26z
M2336 3990 c-38 -16 -79 -39 -90 -51 -17 -17 -11 -16 34 9 30 16 72 35 93 42
20 6 37 16 37 21 0 5 -1 9 -2 8 -2 0 -34 -13 -72 -29z M2525 3984 c11 -2 59
-6 108 -9 48 -4 87 -10 87 -14 0 -12 -97 -57 -170 -80 -261 -81 -390 -131
-458 -179 -28 -20 -152 -74 -152 -66 0 2 18 31 40 63 22 32 40 69 39 82 -1 22
-1 22 -14 -6 -27 -60 -157 -195 -188 -195 -13 0 0 61 24 117 31 72 16 61 -44
-32 -30 -47 -58 -81 -62 -75 -3 5 -2 10 2 10 5 0 13 21 19 47 11 46 11 47 -7
24 -11 -13 -19 -29 -19 -37 0 -7 -4 -15 -9 -19 -6 -3 -7 9 -4 30 7 45 -1 45
-23 0 -22 -46 -29 -44 -30 8 -1 30 1 36 7 22 6 -17 8 -16 8 8 1 16 13 49 28
75 19 33 22 43 9 33 -9 -8 -26 -31 -36 -50 l-19 -36 -1 35 c-1 30 -4 26 -15
-25 -8 -33 -14 -75 -14 -92 -1 -18 -5 -33 -11 -33 -12 0 -11 56 2 148 18 120
-10 112 -46 -14 -24 -80 -46 -108 -46 -57 0 16 7 53 15 83 26 97 26 106 1 55
-14 -27 -27 -59 -31 -70 -8 -25 -25 -3 -25 33 0 12 -5 22 -11 22 -11 0 -11 -7
10 -103 13 -61 17 -67 42 -67 12 0 19 -5 17 -12 -5 -15 -16 -21 -223 -119
-163 -78 -283 -152 -363 -224 -61 -55 -87 -122 -97 -256 -3 -46 -8 -99 -11
-116 -3 -20 -1 -33 6 -33 5 0 10 6 10 13 0 16 107 125 140 142 37 19 507 -4
521 -26 11 -18 11 -103 -1 -154 -10 -46 2 -69 35 -63 34 7 20 -34 -32 -92 -48
-53 -48 -75 -2 -68 21 3 30 0 35 -14 3 -10 10 -16 15 -12 6 3 6 10 1 17 -6 8
6 26 35 56 25 24 40 34 34 22 -7 -12 -11 -38 -10 -59 2 -49 -11 -79 -61 -137
-46 -53 -46 -50 -18 -172 9 -37 29 -84 50 -115 20 -29 50 -87 68 -128 39 -90
85 -173 105 -190 14 -11 14 -10 6 13 -11 28 -30 64 -47 87 -6 8 -27 54 -48
103 -20 48 -53 114 -72 147 -19 33 -32 65 -29 70 8 13 155 13 155 0 0 -5 -9
-10 -20 -10 -11 0 -20 -5 -20 -11 0 -12 43 -1 48 12 7 17 32 9 32 -11 0 -11 6
-37 14 -57 42 -111 70 -181 82 -204 10 -20 10 -29 1 -38 -16 -16 -27 -14 -27
7 0 10 -12 29 -27 43 -15 13 -22 17 -16 9 6 -8 14 -30 18 -49 10 -46 85 -156
85 -124 0 5 -11 25 -25 45 -22 32 -23 37 -9 49 17 14 20 11 49 -42 15 -27 45
-57 45 -44 0 5 -17 40 -39 79 -21 39 -59 125 -84 191 -25 66 -49 128 -52 138
-5 12 -2 17 9 17 9 0 16 7 16 15 0 23 17 18 24 -7 l7 -23 9 23 c6 13 15 20 21
17 6 -4 17 2 25 14 19 26 90 68 128 75 17 3 51 16 77 29 67 33 84 24 93 -47 3
-31 16 -84 28 -118 25 -75 32 -243 10 -257 -8 -4 -13 -11 -13 -15 1 -5 -27
-65 -34 -74 -12 -14 -145 -38 -155 -28 -10 8 -11 5 -6 -16 6 -27 4 -28 -31
-30 -21 -1 -54 -2 -73 -3 -74 -4 -89 4 -107 56 -18 49 -33 64 -33 32 0 -10 7
-27 15 -37 23 -30 18 -44 -17 -51 -27 -6 -35 -3 -56 21 -21 25 -23 26 -19 8 6
-30 -19 -34 -225 -34 l-170 0 -35 30 -34 30 -214 0 c-117 0 -220 -3 -229 -6
-19 -7 -21 -41 -5 -81 6 -15 12 -80 14 -143 2 -107 6 -218 20 -555 3 -75 1
-136 -4 -145 -6 -8 -6 -19 -1 -25 5 -6 10 -43 11 -82 2 -63 4 -70 20 -66 16 4
19 0 19 -25 0 -17 -4 -34 -10 -37 -15 -10 -12 -35 5 -35 8 0 15 -9 15 -20 0
-11 -5 -20 -11 -20 -5 0 -7 5 -3 11 4 7 1 10 -7 7 -10 -3 -12 -26 -10 -96 3
-87 2 -92 -18 -92 -30 0 -27 -41 5 -78 23 -26 63 -35 48 -11 -8 14 137 11 150
-3 8 -9 33 -11 91 -7 l80 5 -75 4 -75 3 55 7 c92 13 156 11 169 -4 7 -8 8 -16
4 -18 -4 -3 -1 -2 7 1 8 3 58 5 110 5 73 -1 86 0 55 7 -22 4 -67 9 -100 10
-59 1 -59 1 -20 10 65 13 165 9 165 -7 0 -19 15 -18 31 2 8 10 21 13 36 9 13
-3 23 -1 23 5 0 5 -6 10 -12 10 -7 0 -5 5 6 11 13 8 24 8 41 -1 16 -8 42 -10
85 -5 45 5 61 4 56 -4 -4 -6 -1 -11 6 -11 9 0 9 -3 -2 -10 -11 -8 -7 -10 19
-8 19 2 37 9 39 17 3 8 0 11 -7 7 -6 -4 -11 -3 -11 3 0 6 12 8 30 4 19 -3 30
-1 30 6 0 6 8 11 18 11 10 0 23 5 29 11 11 11 133 8 223 -4 192 -26 241 -29
475 -23 138 3 285 10 327 16 73 9 142 3 192 -16 14 -5 17 -4 11 5 -6 10 -2 11
15 6 15 -5 20 -4 16 3 -4 7 11 16 36 23 24 7 47 16 52 21 13 11 173 10 180 -1
3 -5 15 -7 26 -4 11 3 17 10 14 15 -7 10 133 5 196 -7 26 -5 31 -4 20 4 -11 8
0 9 39 4 42 -5 52 -3 46 6 -8 13 49 11 138 -5 21 -3 43 -2 50 4 21 17 135 26
152 12 18 -15 49 -5 39 12 -5 8 0 9 14 6 18 -5 22 -2 22 19 0 29 -17 65 -36
76 -16 9 -19 53 -4 62 12 8 13 45 1 45 -15 0 -25 149 -11 165 6 8 9 19 5 25
-7 12 -9 26 -21 133 -5 55 -4 67 8 67 19 0 37 59 27 86 -4 12 -21 27 -38 34
l-31 12 -1 97 c-2 177 3 306 12 315 5 6 9 35 9 66 0 35 6 64 16 78 10 15 14
32 10 48 l-7 25 -222 -1 c-122 -1 -228 -1 -234 -1 -7 1 -13 8 -13 16 0 8 -30
58 -66 111 -44 64 -64 103 -61 116 7 26 -20 102 -44 124 -27 24 -24 38 11 51
17 6 30 15 30 20 0 4 -29 40 -65 78 -35 39 -65 74 -65 79 0 5 20 6 45 3 86
-12 95 10 38 95 -21 30 -60 87 -86 126 -26 39 -63 83 -82 98 -19 14 -35 32
-35 38 0 6 -29 26 -65 44 -89 43 -85 57 13 48 42 -3 93 -10 112 -16 18 -5 35
-8 37 -7 6 6 -154 86 -257 129 l-105 43 -131 0 -131 0 18 25 c11 14 20 42 21
62 3 45 3 45 31 13 21 -24 86 -43 199 -59 18 -3 60 -14 92 -26 57 -20 184 -40
256 -40 69 1 3 21 -79 25 -150 6 -200 32 -386 199 -63 57 -38 61 36 5 72 -54
154 -99 279 -154 153 -67 135 -46 -26 31 -169 80 -209 103 -196 116 6 6 26 1
53 -14 43 -22 51 -23 297 -23 140 0 258 3 263 6 5 3 -28 18 -73 33 -218 73
-577 241 -578 270 0 8 57 5 285 -14 190 -16 215 -17 215 -9 0 6 -84 40 -305
125 -18 6 -17 8 10 14 25 5 19 7 -32 13 -65 7 -232 40 -318 62 -130 34 -241
68 -268 82 l-30 15 52 19 c69 24 141 66 141 83 0 17 -55 26 -155 25 -44 -1
-71 -3 -60 -5z m48 -155 c30 -17 232 -75 361 -104 98 -23 374 -112 466 -151
l35 -15 -55 6 c-30 3 -104 10 -165 15 -176 16 -379 43 -389 52 -6 4 1 8 15 8
19 0 21 2 9 10 -17 12 -72 5 -188 -21 -111 -25 -243 -24 -226 2 3 5 -4 9 -15
9 -11 0 -24 6 -28 14 -15 24 -51 36 -112 36 -34 0 -61 4 -61 8 0 5 44 30 98
55 53 26 113 56 132 67 39 22 90 26 123 9z m-218 -173 c38 -25 48 -78 52 -276
4 -164 3 -183 -10 -171 -9 6 -18 30 -22 52 -8 44 -6 43 -40 27 -27 -12 -100
-106 -91 -116 3 -3 27 18 52 46 54 60 64 63 64 23 0 -56 -103 -121 -241 -150
-40 -9 -57 -7 -134 18 -149 49 -170 88 -148 264 20 153 8 142 207 202 62 19
48 -4 -20 -32 -24 -10 -44 -21 -44 -25 0 -12 6 -10 80 27 64 32 120 45 120 28
0 -9 -61 -60 -102 -87 -27 -18 -125 -45 -164 -46 -17 0 -21 5 -17 28 3 23 2
24 -6 7 -23 -49 -15 -58 45 -51 80 9 207 53 245 85 29 24 31 29 19 50 -15 29
1 51 24 32 11 -9 15 -9 19 1 2 7 8 10 12 6 4 -4 2 -14 -5 -23 -10 -13 -9 -15
8 -15 12 0 27 9 35 20 23 33 37 3 43 -87 3 -43 7 -83 9 -90 2 -6 -2 -14 -9
-16 -17 -7 -37 28 -29 50 5 16 4 17 -11 2 -14 -13 -15 -22 -5 -67 13 -61 24
-73 32 -32 5 21 14 31 32 36 22 5 25 12 25 48 -1 63 -24 163 -45 186 -34 38
-229 21 -384 -34 -123 -43 -140 -71 -148 -240 -4 -99 -2 -114 16 -143 43 -68
158 -124 256 -125 65 -1 222 60 259 101 23 25 36 27 36 5 0 -8 13 -29 30 -47
38 -40 38 -41 -8 -45 -20 -1 -57 -9 -82 -16 -107 -33 -117 -24 -20 20 61 27
88 49 76 61 -4 4 -15 2 -24 -5 -54 -38 -158 -83 -215 -92 -73 -11 -198 5 -261
35 -56 27 -123 109 -137 168 -18 77 -7 214 20 241 l22 21 -17 -40 c-12 -30
-15 -57 -10 -111 9 -118 21 -121 21 -6 1 144 14 178 86 214 178 90 431 132
504 84z m520 -64 c63 -14 94 -28 145 -64 71 -50 250 -135 405 -192 55 -20 109
-41 120 -46 13 -6 -54 -9 -195 -7 l-215 2 -150 54 c-82 29 -163 57 -180 61
l-30 8 28 1 c16 1 72 -8 125 -18 117 -24 252 -37 252 -25 0 5 -11 16 -24 24
-13 8 -48 32 -77 52 -78 53 -383 172 -333 130 5 -5 70 -32 144 -62 198 -78
275 -130 173 -116 -75 11 -292 54 -356 71 -70 18 -138 19 -156 3 -10 -11 -12
-8 -9 12 3 24 7 25 76 28 39 2 95 -1 122 -6 55 -10 65 0 23 22 -18 8 -77 16
-163 19 -147 6 -180 12 -180 33 0 11 28 14 144 14 86 0 147 4 151 10 9 15 70
12 160 -8z m-1275 -8 c0 -9 -8 -18 -17 -20 -10 -3 -36 -14 -58 -24 -45 -22
-11 -16 44 8 20 8 64 17 99 19 73 5 76 -1 34 -68 -28 -43 -28 -46 -20 -138 6
-66 16 -111 33 -149 26 -56 21 -90 -11 -78 -7 3 -16 1 -20 -5 -16 -27 -137 2
-277 68 -127 59 -141 64 -183 57 -34 -5 -49 -3 -56 7 -7 10 -8 5 -4 -16 4 -19
3 -25 -2 -17 -7 11 -19 6 -55 -21 -57 -43 -80 -51 -107 -37 -34 18 -23 32 75
103 52 38 95 72 95 78 0 16 -202 -144 -221 -175 -15 -24 -53 -159 -63 -223 -1
-7 -6 -16 -10 -20 -29 -27 39 260 70 296 41 49 224 167 370 239 304 149 284
141 284 116z m907 -76 c20 -16 15 -37 -10 -49 -13 -6 -29 -23 -34 -37 -10 -25
-11 -24 -12 18 -1 25 -4 56 -8 69 -6 22 -4 23 23 17 16 -4 35 -12 41 -18z
m224 -88 c46 -28 47 -30 59 -101 13 -79 9 -156 -12 -188 -16 -26 -32 -28 -18
-2 13 25 13 145 0 192 -10 36 -65 98 -77 86 -3 -4 4 -18 17 -32 13 -14 20 -25
15 -25 -4 0 -1 -8 8 -18 19 -20 40 -141 31 -176 -14 -58 -95 -74 -146 -29 -27
24 -58 90 -58 126 0 42 55 117 85 117 14 0 25 -4 25 -10 0 -5 10 -10 21 -10
18 0 19 2 9 15 -7 8 -19 15 -26 15 -8 0 -14 7 -14 15 0 23 -28 18 -54 -10
l-23 -25 -15 21 c-13 21 -15 21 -45 6 -46 -24 -73 -64 -72 -106 l1 -36 8 33
c14 60 93 118 114 84 8 -14 -35 -72 -65 -88 -16 -8 -29 -21 -29 -29 0 -21 14
-19 35 5 22 25 39 26 27 3 -5 -10 -7 -33 -5 -52 4 -22 1 -36 -8 -43 -10 -7 -8
-8 8 -3 13 3 25 1 30 -7 16 -26 53 -51 85 -57 l33 -7 -34 -18 c-65 -34 -140
-8 -186 64 -22 35 -25 51 -25 130 0 105 8 118 100 162 77 37 141 37 201 -2z
m-371 -5 c0 -3 -2 -5 -5 -5 -3 0 -5 2 -5 5 0 3 2 5 5 5 3 0 5 -2 5 -5z m527
-95 c38 -36 93 -85 121 -109 29 -25 50 -46 48 -48 -5 -6 -189 57 -207 70 -8 7
-20 37 -26 67 -7 30 -15 63 -19 74 -11 29 7 17 83 -54z m-1642 -90 c-3 -5 8
-9 27 -9 20 1 65 -15 113 -39 97 -49 96 -49 -131 -55 -157 -3 -163 -4 -228
-36 -39 -18 -66 -38 -66 -47 0 -8 -4 -12 -10 -9 -5 3 -10 1 -10 -4 0 -17 13
-13 50 14 64 48 118 57 345 63 140 3 232 0 277 -8 63 -11 70 -10 102 9 19 12
37 27 39 34 3 8 10 7 23 -6 19 -18 18 -19 -13 -47 -45 -40 -74 -46 -140 -25
-84 26 -410 27 -508 1 -69 -18 -118 -38 -162 -66 -12 -8 -24 -12 -26 -10 -7 8
18 132 25 125 3 -3 5 2 5 11 -2 14 7 18 48 19 58 2 105 19 106 37 0 10 2 10 5
1 4 -9 13 -9 30 -2 14 5 39 9 55 9 18 0 28 4 24 10 -3 6 -18 7 -32 4 -31 -8
-23 12 11 26 29 12 48 12 41 0z m-88 -27 c-4 -3 -10 -3 -14 0 -3 4 0 7 7 7 7
0 10 -3 7 -7z m543 -78 c0 -3 -2 -5 -5 -5 -3 0 -5 2 -5 5 0 3 2 5 5 5 3 0 5
-2 5 -5z m120 -30 c0 -3 -2 -5 -5 -5 -3 0 -5 2 -5 5 0 3 2 5 5 5 3 0 5 -2 5
-5z m1208 -15 c51 -9 217 -70 262 -96 23 -13 16 -14 -65 -8 -103 7 -103 3 -10
-66 95 -70 207 -188 200 -210 -4 -14 -2 -20 9 -20 15 0 116 -133 116 -153 0
-12 -104 -1 -132 14 -11 6 -22 8 -25 5 -6 -5 100 -138 136 -170 24 -21 27 -36
9 -36 -14 0 -82 57 -217 179 -44 40 -81 68 -81 63 0 -6 41 -45 91 -88 84 -71
169 -164 169 -185 0 -4 14 -30 30 -56 17 -26 30 -58 30 -72 0 -25 -3 -24 -46
22 -76 78 -66 50 20 -59 93 -118 164 -229 154 -239 -3 -4 -59 -6 -124 -6 -117
0 -117 0 -145 30 -15 16 -52 46 -82 65 -31 20 -58 40 -62 46 -11 18 -23 11
-18 -10 3 -11 3 -20 0 -20 -8 0 -104 102 -141 150 -34 45 -50 37 -17 -9 23
-32 13 -52 -11 -23 -18 21 -78 164 -79 189 -1 10 -7 0 -13 -22 -16 -50 -36
-55 -69 -15 -30 35 -47 87 -47 145 l-1 40 -16 -30 c-8 -16 -17 -32 -19 -33 -7
-9 -72 50 -136 123 l-71 80 31 9 c44 12 41 30 -4 22 -22 -5 -41 -3 -50 5 -26
21 -15 29 42 29 72 0 62 15 -16 24 -61 7 -66 11 -51 35 9 14 42 12 111 -5 23
-6 24 -5 10 9 -19 20 -57 29 -147 34 -78 5 -72 9 -88 -62 -7 -33 -61 -95 -82
-95 -7 0 -13 -7 -13 -15 0 -22 11 -19 52 15 l36 30 21 -36 c12 -19 21 -37 21
-40 0 -16 53 -72 64 -68 8 3 18 -7 25 -24 7 -15 20 -34 31 -42 26 -19 16 -69
-32 -144 -21 -34 -43 -72 -49 -86 l-10 -25 -29 35 c-26 32 -85 143 -138 260
-11 25 -28 75 -38 113 -9 37 -21 67 -25 67 -11 0 -12 2 6 -74 18 -79 121 -299
169 -362 19 -25 40 -62 46 -82 17 -55 32 -82 42 -76 5 4 5 11 0 17 -17 23 -32
76 -19 71 21 -9 137 -177 137 -199 0 -37 -145 84 -218 181 -91 121 -144 244
-186 432 -21 93 -21 104 -7 109 9 3 34 14 57 24 62 29 67 26 59 -28 -5 -39 -4
-46 6 -35 14 13 31 165 22 188 -3 8 -14 14 -24 14 -10 0 -19 6 -19 14 0 8 11
13 28 13 61 -1 191 23 255 47 97 37 161 35 223 -6 36 -24 53 -45 66 -78 17
-41 18 -42 12 -10 -9 49 -37 84 -84 108 -45 22 -36 32 30 32 21 0 41 4 44 9 7
11 -86 29 -209 38 -156 12 -129 45 70 87 39 8 173 6 223 -4z m-1506 -38 c21
-21 4 -22 -108 -11 -60 6 -151 9 -201 5 -53 -3 -93 -2 -93 4 0 15 40 18 217
17 120 -2 176 -6 185 -15z m973 -1 l36 -19 -80 -63 c-75 -61 -257 -166 -267
-156 -3 3 16 24 41 48 43 41 84 99 69 99 -12 0 -144 -141 -140 -149 3 -4 -19
-22 -49 -40 -30 -18 -59 -39 -66 -47 -21 -25 -29 -15 -22 31 7 56 -11 61 -24
8 -8 -34 -12 -38 -44 -41 -34 -3 -39 1 -87 64 -51 65 -52 66 -52 35 0 -36 -10
-40 -28 -11 -7 11 -17 20 -23 20 -6 0 -1 -15 10 -34 23 -37 25 -53 11 -76 -14
-23 -46 13 -70 79 -11 31 -37 88 -57 128 -34 67 -35 72 -19 88 23 23 99 15
129 -13 30 -27 85 -34 84 -9 -2 75 9 75 128 7 43 -24 85 -42 85 -35 0 2 -25
18 -56 35 -76 44 -61 48 36 11 100 -39 202 -51 228 -28 9 8 42 25 72 37 30 11
66 27 80 35 32 18 34 18 75 -4z m-899 -6 c-22 -16 -46 -20 -46 -7 0 15 13 22
39 22 25 -1 25 -1 7 -15z m204 5 c0 -5 -4 -10 -10 -10 -5 0 -10 5 -10 10 0 6
5 10 10 10 6 0 10 -4 10 -10z m-171 -135 c60 -99 37 -211 -52 -254 -65 -31
-75 -26 -30 17 47 43 76 112 71 168 l-3 39 -23 -42 c-24 -46 -60 -61 -48 -20
15 49 18 144 6 167 l-12 23 28 -21 c16 -11 44 -46 63 -77z m951 90 c0 -3 -2
-5 -5 -5 -3 0 -5 2 -5 5 0 3 2 5 5 5 3 0 5 -2 5 -5z m-1660 -20 c0 -3 -2 -5
-5 -5 -3 0 -5 2 -5 5 0 3 2 5 5 5 3 0 5 -2 5 -5z m1875 -16 c5 -5 -17 -9 -55
-9 -36 -1 -94 -7 -130 -15 -88 -19 -99 -19 -80 0 38 37 231 55 265 24z m-285
-14 c0 -3 -2 -5 -5 -5 -3 0 -5 2 -5 5 0 3 2 5 5 5 3 0 5 -2 5 -5z m-110 -152
c0 -8 -31 -29 -72 -47 -40 -19 -86 -48 -101 -66 -19 -21 -35 -30 -47 -27 -11
3 -21 -1 -24 -10 -10 -24 -26 -3 -20 24 l7 26 -34 -25 c-46 -33 -173 -98 -193
-98 -13 0 -15 4 -6 19 5 11 10 31 10 45 0 29 29 63 40 46 9 -15 53 -4 109 27
41 22 117 53 134 53 4 0 7 -10 7 -22 l0 -23 18 21 c9 12 43 35 75 52 58 30 97
32 97 5z m-723 -40 c-4 -3 -7 0 -7 7 0 7 3 10 7 7 3 -4 3 -10 0 -14z m170 1
c-3 -4 0 -13 8 -21 9 -8 13 -27 11 -46 -2 -18 -4 -57 -5 -88 -1 -74 -16 -78
-79 -23 -51 45 -70 84 -57 124 6 20 7 20 24 -1 23 -29 43 -20 65 25 9 20 22
36 28 36 6 0 9 -3 5 -6z m693 -8 c0 -3 -8 -12 -17 -22 -16 -16 -16 -22 14
-105 35 -100 32 -112 -11 -42 -26 44 -50 146 -39 166 4 7 53 10 53 3z m-870
-21 c0 -3 -2 -5 -5 -5 -3 0 -5 2 -5 5 0 3 2 5 5 5 3 0 5 -2 5 -5z m890 -37 c0
-13 8 -37 19 -53 10 -17 23 -47 30 -68 9 -25 18 -37 32 -37 10 0 31 -15 46
-32 49 -57 107 -108 131 -114 20 -6 62 -77 62 -106 0 -74 213 -305 308 -333
44 -13 21 14 -52 59 -95 59 -236 213 -236 256 0 14 64 -47 121 -116 30 -37
161 -140 188 -149 10 -3 21 -18 24 -33 3 -15 8 -34 12 -43 4 -12 -1 -18 -20
-23 -53 -13 -167 69 -260 189 -35 45 -71 88 -80 95 -25 21 -17 -5 15 -45 27
-34 30 -45 30 -106 0 -37 -4 -79 -10 -93 -5 -14 -5 -28 -1 -31 15 -9 29 50 26
106 l-2 53 26 -31 c80 -93 113 -135 110 -137 -2 -2 -53 -6 -113 -9 l-109 -5
-70 37 c-39 20 -83 52 -98 71 -155 191 -149 179 -120 232 13 24 35 58 48 76
13 18 27 48 30 67 7 46 16 44 53 -9 36 -53 36 -53 8 -76 -19 -15 -21 -21 -10
-31 10 -11 12 -10 12 3 0 8 7 21 15 28 12 10 16 9 21 -6 4 -11 29 -42 56 -71
52 -56 53 -57 50 -241 0 -28 4 -50 9 -46 10 6 11 143 0 226 -6 51 -13 63 -61
116 -30 33 -77 92 -105 132 -27 40 -65 89 -82 107 -54 57 -99 213 -62 213 5 0
9 -10 9 -22z m-880 -33 c0 -3 -2 -5 -5 -5 -3 0 -5 2 -5 5 0 3 2 5 5 5 3 0 5
-2 5 -5z m485 -49 c-10 -7 -15 -19 -12 -27 4 -10 6 -9 6 4 1 14 6 17 21 12 13
-4 20 -2 20 6 0 7 3 9 7 6 6 -6 -1 -25 -27 -77 -5 -10 -22 -15 -48 -15 -22 0
-44 -4 -49 -8 -4 -5 6 -6 22 -3 27 6 28 6 6 -4 -37 -16 -56 5 -30 33 17 19 21
20 29 7 5 -8 10 -10 11 -5 2 29 9 46 30 75 13 17 25 26 27 20 2 -6 -4 -17 -13
-24z m-484 -33 c-16 -38 -48 -79 -56 -71 -4 3 5 24 19 47 14 22 26 48 26 58 0
13 3 14 11 6 9 -9 9 -19 0 -40z m399 42 c0 -3 -2 -5 -5 -5 -3 0 -5 2 -5 5 0 3
2 5 5 5 3 0 5 -2 5 -5z m20 -10 c0 -3 -2 -5 -5 -5 -3 0 -5 2 -5 5 0 3 2 5 5 5
3 0 5 -2 5 -5z m30 0 c0 -3 -2 -5 -5 -5 -3 0 -5 2 -5 5 0 3 2 5 5 5 3 0 5 -2
5 -5z m-390 -66 c0 -10 -4 -19 -9 -19 -5 0 -8 11 -8 25 0 13 3 22 8 19 5 -3 9
-14 9 -25z m301 2 c-17 -13 -20 -20 -11 -23 8 -2 10 -9 6 -16 -9 -15 -43 -7
-64 14 -11 12 -10 14 10 14 19 0 20 2 8 11 -12 8 -11 9 5 5 11 -3 27 -1 35 4
27 17 36 10 11 -9z m-111 -16 c-7 -8 -17 -15 -22 -15 -11 0 14 29 26 30 5 0 3
-7 -4 -15z m-158 -4 c-8 -4 -13 -11 -13 -15 3 -19 0 -26 -10 -26 -5 0 -7 5 -4
10 3 6 -2 11 -12 11 -17 1 -17 2 0 6 9 2 17 9 17 14 0 5 8 9 18 9 13 0 14 -2
4 -9z m115 -8 c-4 -3 -7 0 -7 7 0 7 3 10 7 7 3 -4 3 -10 0 -14z m330 0 c-4 -3
-10 -3 -14 0 -3 4 0 7 7 7 7 0 10 -3 7 -7z m-337 -23 c0 -5 -8 -10 -17 -10
-15 0 -16 2 -3 10 19 12 20 12 20 0z m104 -6 c9 -23 8 -24 -19 -24 -27 0 -32
9 -13 28 16 16 25 15 32 -4z m166 11 c0 -3 -2 -5 -5 -5 -3 0 -5 2 -5 5 0 3 2
5 5 5 3 0 5 -2 5 -5z m90 0 c0 -3 -2 -5 -5 -5 -3 0 -5 2 -5 5 0 3 2 5 5 5 3 0
5 -2 5 -5z m-600 -10 c0 -3 -2 -5 -5 -5 -3 0 -5 2 -5 5 0 3 2 5 5 5 3 0 5 -2
5 -5z m280 -11 c0 -8 -5 -12 -10 -9 -6 4 -8 11 -5 16 9 14 15 11 15 -7z m327
-23 c0 -11 -5 -17 -9 -15 -11 7 -10 34 1 34 6 0 9 -9 8 -19z m-588 -7 c25 -13
53 -15 117 -12 74 4 84 3 78 -11 -4 -9 -12 -31 -18 -49 l-11 -34 -115 7 c-144
8 -153 10 -144 38 5 17 51 77 59 77 1 0 17 -7 34 -16z m283 -11 c-12 -2 -20
-8 -17 -13 3 -4 -1 -10 -8 -13 -8 -3 -13 3 -13 14 0 15 7 19 31 18 23 -1 25
-3 7 -6z m341 -58 c4 -8 2 -17 -3 -20 -6 -4 -10 3 -10 14 0 25 6 27 13 6z m7
-90 c0 -3 -2 -5 -5 -5 -3 0 -5 2 -5 5 0 3 2 5 5 5 3 0 5 -2 5 -5z m50 -31 c0
-3 -5 -2 -11 2 -8 4 -9 -1 -4 -17 5 -16 4 -21 -3 -14 -5 6 -13 21 -17 33 -6
22 -5 23 14 13 12 -7 21 -14 21 -17z m20 -44 c0 -4 -6 -10 -14 -13 -10 -4 -12
0 -9 14 5 18 23 18 23 -1z m37 -207 c35 -73 63 -133 63 -135 0 -2 -90 -3 -200
-3 -110 0 -200 2 -200 5 0 14 117 30 149 20 32 -9 37 -7 78 34 47 47 51 67 27
124 -16 39 -21 103 -8 124 5 8 11 4 17 -13 6 -13 39 -83 74 -156z m3 132 c11
-13 10 -14 -4 -9 -9 3 -16 10 -16 15 0 13 6 11 20 -6z m7 -67 c-3 -7 -5 -2 -5
12 0 14 2 19 5 13 2 -7 2 -19 0 -25z m-102 -48 c10 -45 -58 -140 -83 -116 -6
7 60 145 70 146 3 0 9 -14 13 -30z m142 10 c45 -42 136 -92 215 -118 l83 -27
-108 -6 c-60 -4 -113 -11 -119 -17 -8 -8 -25 17 -59 86 -27 53 -49 98 -49 100
0 8 19 -1 37 -18z m818 -30 c-7 -11 14 -54 22 -46 3 3 13 -3 22 -13 9 -10 27
-19 41 -19 68 0 70 -17 3 -26 -36 -5 -51 -2 -66 11 -29 26 -48 75 -35 91 12
14 22 16 13 2z m851 -145 c-10 -15 -16 -45 -16 -78 l0 -54 -62 -23 c-35 -12
-69 -27 -76 -33 -16 -13 -33 8 -25 30 3 7 2 29 -1 48 l-7 35 -61 0 -61 0 7
-46 c3 -26 6 -58 6 -71 0 -22 3 -24 33 -18 17 4 39 14 48 21 14 13 17 7 22
-62 8 -85 3 -102 -21 -82 -45 35 -61 39 -73 16 -16 -30 -4 -139 18 -155 25
-19 17 -21 -99 -24 -116 -3 -116 -3 -87 53 21 42 24 52 9 43 -6 -4 -10 21 -11
67 -3 184 -9 290 -19 308 -5 10 -10 22 -10 27 0 4 98 9 217 11 120 2 220 5
222 8 2 2 18 4 34 4 29 0 29 0 13 -25z m-2839 -7 c35 -39 43 -64 43 -142 0
-74 -1 -76 -25 -76 -32 0 -33 -16 -1 -24 20 -5 24 -13 30 -67 9 -95 7 -146 -8
-184 -26 -61 -46 -67 -245 -73 -99 -3 -186 -2 -194 1 -23 9 -2 73 37 115 31
33 26 43 -10 17 -21 -14 -21 -13 -27 68 -4 45 -7 126 -7 180 0 97 0 97 25 97
14 0 25 5 25 10 0 6 -14 10 -31 10 -18 0 -28 4 -24 10 4 6 0 22 -9 35 -29 44
-26 45 192 45 203 0 209 -1 229 -22z m1843 18 c0 -3 -5 -8 -12 -12 -7 -4 -8
-3 -4 4 7 12 16 16 16 8z m28 -37 c-3 -20 -5 -19 -9 9 -3 20 -2 29 4 23 5 -5
7 -19 5 -32z m444 1 c15 -20 20 -50 25 -133 6 -102 5 -107 -14 -107 -10 0 -28
-7 -39 -15 -18 -13 -17 -14 19 -15 l37 0 0 -70 c0 -130 -16 -140 -227 -140
l-145 0 -29 29 c-38 39 -37 55 8 86 21 14 31 25 23 25 -9 0 -26 -7 -38 -16
l-22 -15 0 103 c0 57 -3 120 -6 140 -6 36 -6 37 30 43 46 9 47 22 1 17 -42 -5
-45 7 -13 54 28 40 35 42 222 40 147 -1 149 -1 168 -26z m-530 -3 c-17 -18
-22 -36 -22 -74 0 -48 -2 -51 -32 -64 -18 -7 -55 -26 -81 -41 -26 -15 -50 -28
-52 -28 -3 0 -5 23 -5 50 0 45 3 52 25 60 40 15 30 18 -55 16 l-80 -1 0 -32
c0 -56 15 -78 60 -92 23 -7 74 -27 113 -45 40 -18 83 -35 97 -39 24 -6 25 -10
26 -83 0 -61 4 -79 18 -90 10 -7 16 -16 13 -21 -3 -4 -106 -9 -229 -11 -122
-2 -234 -6 -247 -9 -21 -5 -23 -3 -17 13 5 10 10 37 13 59 5 38 8 41 62 63 82
34 100 37 107 18 9 -23 -12 -66 -31 -66 -8 0 -15 -4 -15 -10 0 -6 32 -10 75
-10 l75 0 0 39 c0 44 -7 51 -75 76 -27 9 -75 30 -105 46 -30 15 -65 30 -77 34
-21 6 -23 13 -23 69 0 63 0 64 30 70 17 3 30 10 30 17 0 7 -11 8 -29 4 -28 -6
-30 -4 -37 29 -3 20 -10 39 -15 42 -23 14 -6 25 29 20 29 -4 373 5 456 12 18
2 18 1 -2 -21z m68 8 c0 -3 -2 -5 -5 -5 -3 0 -5 2 -5 5 0 3 2 5 5 5 3 0 5 -2
5 -5z m-604 -50 c44 -50 63 -170 29 -180 -46 -15 -49 -19 -16 -23 l33 -3 -4
-95 c-5 -112 -29 -149 -102 -158 -94 -12 -389 -13 -375 -2 21 17 59 74 59 88
-1 8 -7 5 -15 -6 -13 -18 -15 -4 -15 132 0 84 0 155 0 160 -1 4 8 8 20 10 29
5 25 22 -5 22 -22 0 -25 4 -25 35 0 25 -5 38 -17 43 -21 8 243 21 337 15 60
-3 68 -6 96 -38z m-456 28 c-1 -21 -28 -42 -48 -36 -31 8 -28 -15 3 -27 24 -9
25 -13 25 -96 0 -47 -4 -84 -8 -82 -5 2 -43 19 -85 38 -72 33 -76 36 -79 70
l-3 35 -57 3 -58 3 6 -153 c6 -194 12 -238 30 -245 38 -15 3 -23 -97 -23 -97
0 -110 2 -105 16 3 9 6 27 6 40 0 17 6 24 19 24 10 0 25 7 32 17 13 15 11 16
-12 10 -24 -6 -27 -4 -33 26 -9 51 -9 252 1 250 4 -1 17 -5 28 -8 13 -5 8 2
-12 20 -23 18 -33 35 -33 55 0 41 -27 60 -49 34 -25 -31 -12 -462 15 -481 15
-11 0 -13 -95 -13 l-113 0 9 33 c15 59 3 439 -15 460 -14 16 -11 17 59 18 155
3 625 15 647 17 12 1 22 -1 22 -5z m1060 -16 c0 -7 -4 -6 -10 3 -8 13 -10 12
-10 -4 0 -11 -3 -17 -6 -13 -4 3 -4 13 0 22 6 18 26 11 26 -8z m-33 -59 c-3
-8 -6 -5 -6 6 -1 11 2 17 5 13 3 -3 4 -12 1 -19z m43 -21 c0 -4 -7 -2 -15 7
-8 8 -15 21 -15 28 1 14 30 -20 30 -35z m-43 -32 c-5 -33 7 -50 16 -22 2 7 3
6 3 -3 -1 -8 -12 -16 -24 -16 -18 -1 -21 3 -16 15 3 9 9 26 11 39 8 36 16 25
10 -13z m770 18 c-4 -3 -7 0 -7 7 0 7 3 10 7 7 3 -4 3 -10 0 -14z m23 12 c0
-3 -2 -5 -5 -5 -3 0 -5 2 -5 5 0 3 2 5 5 5 3 0 5 -2 5 -5z m-773 -22 c-4 -3
-7 0 -7 7 0 7 3 10 7 7 3 -4 3 -10 0 -14z m-1297 -38 c0 -3 -2 -5 -5 -5 -3 0
-5 2 -5 5 0 3 2 5 5 5 3 0 5 -2 5 -5z m1240 0 c0 -3 -2 -5 -5 -5 -3 0 -5 2 -5
5 0 3 2 5 5 5 3 0 5 -2 5 -5z m1002 -40 c-3 -29 -7 -33 -18 -24 -8 6 -12 14
-10 18 1 3 6 14 9 24 11 30 23 18 19 -18z m-2242 20 c0 -3 -2 -5 -5 -5 -3 0
-5 2 -5 5 0 3 2 5 5 5 3 0 5 -2 5 -5z m1220 -10 c0 -3 -2 -5 -5 -5 -3 0 -5 2
-5 5 0 3 2 5 5 5 3 0 5 -2 5 -5z m100 1 c0 -3 -4 -8 -10 -11 -5 -3 -10 -1 -10
4 0 6 5 11 10 11 6 0 10 -2 10 -4z m880 -38 c0 -12 -14 -10 -28 4 -19 19 -14
29 8 16 11 -7 20 -16 20 -20z m-2175 13 c-8 -13 10 -22 51 -26 53 -5 52 -13
-1 -11 -29 1 -49 7 -55 16 -13 20 -12 30 1 30 5 0 8 -4 4 -9z m1165 4 c0 -3
-2 -5 -5 -5 -3 0 -5 2 -5 5 0 3 2 5 5 5 3 0 5 -2 5 -5z m107 -10 c2 -1 6 -16
9 -33 6 -29 4 -32 -17 -31 -17 0 -20 2 -9 7 24 11 21 28 -6 41 -15 6 -23 7
-19 1 3 -5 1 -10 -4 -10 -6 0 -11 7 -11 16 0 10 -5 14 -16 10 -8 -3 -12 -2 -9
3 4 8 72 4 82 -4z m928 -25 c3 -5 -1 -10 -9 -10 -9 0 -17 -4 -17 -10 -1 -5 -2
-14 -3 -19 0 -5 -4 -13 -8 -17 -16 -16 -7 -34 16 -34 15 0 26 7 29 18 3 10 5
5 6 -12 1 -24 -2 -27 -19 -23 -11 3 -20 1 -20 -4 0 -5 -4 -9 -9 -9 -11 0 -36
99 -27 107 3 4 6 -3 6 -15 0 -12 4 -22 9 -22 5 0 7 9 4 21 -8 28 28 52 42 29z
m-2206 -28 c-1 -15 -2 -15 -6 1 -2 9 -9 14 -15 11 -7 -4 -8 -2 -4 5 10 15 26
4 25 -17z m2198 -19 c-4 -3 -7 0 -7 7 0 7 3 10 7 7 3 -4 3 -10 0 -14z m-2027
2 c0 -3 -2 -5 -5 -5 -3 0 -5 2 -5 5 0 3 2 5 5 5 3 0 5 -2 5 -5z m-173 -94 c-3
-18 -4 -14 -6 14 -1 31 -4 37 -12 25 -9 -12 -10 -12 -5 3 3 10 6 26 7 35 0 9
5 2 10 -17 6 -18 8 -45 6 -60z m1293 79 c0 -5 -8 -10 -17 -10 -15 0 -16 2 -3
10 19 12 20 12 20 0z m-473 -17 c-4 -3 -7 0 -7 7 0 7 3 10 7 7 3 -4 3 -10 0
-14z m1323 -3 c0 -5 -5 -10 -11 -10 -5 0 -7 5 -4 10 3 6 8 10 11 10 2 0 4 -4
4 -10z m-1350 -5 c0 -3 -2 -5 -5 -5 -3 0 -5 2 -5 5 0 3 2 5 5 5 3 0 5 -2 5 -5z
m460 0 c0 -3 -2 -5 -5 -5 -3 0 -5 2 -5 5 0 3 2 5 5 5 3 0 5 -2 5 -5z m30 0 c0
-3 -2 -5 -5 -5 -3 0 -5 2 -5 5 0 3 2 5 5 5 3 0 5 -2 5 -5z m780 0 c0 -3 -2 -5
-5 -5 -3 0 -5 2 -5 5 0 3 2 5 5 5 3 0 5 -2 5 -5z m40 0 c0 -3 -2 -5 -5 -5 -3
0 -5 2 -5 5 0 3 2 5 5 5 3 0 5 -2 5 -5z m-2020 -85 c0 -66 -3 -80 -16 -80 -9
0 -25 -10 -36 -22 -14 -16 -18 -18 -14 -6 7 22 -15 90 -34 105 -8 6 -12 15 -7
19 4 4 7 2 7 -4 0 -7 9 -12 20 -12 17 0 20 -7 20 -40 0 -71 18 -43 25 40 5 58
11 80 21 80 11 0 14 -18 14 -80z m1230 75 c0 -3 -2 -5 -5 -5 -3 0 -5 2 -5 5 0
3 2 5 5 5 3 0 5 -2 5 -5z m-13 -22 c-4 -3 -10 -3 -14 0 -3 4 0 7 7 7 7 0 10
-3 7 -7z m14 -20 c-12 -20 -14 -14 -5 12 4 9 9 14 11 11 3 -2 0 -13 -6 -23z
m-44 -15 c-3 -8 -6 -5 -6 6 -1 11 2 17 5 13 3 -3 4 -12 1 -19z m913 -5 c0 -9
3 -13 7 -10 14 14 29 -14 25 -48 -3 -26 -9 -35 -22 -35 -10 0 -21 -8 -23 -17
-3 -10 -5 17 -6 60 -1 50 3 76 9 72 6 -3 10 -13 10 -22z m40 12 c0 -3 -2 -5
-5 -5 -3 0 -5 2 -5 5 0 3 2 5 5 5 3 0 5 -2 5 -5z m-925 -15 c3 -5 4 -10 1 -10
-3 0 -8 5 -11 10 -3 6 -4 10 -1 10 3 0 8 -4 11 -10z m25 -5 c0 -3 -2 -5 -5 -5
-3 0 -5 2 -5 5 0 3 2 5 5 5 3 0 5 -2 5 -5z m-53 -22 c-4 -3 -7 0 -7 7 0 7 3
10 7 7 3 -4 3 -10 0 -14z m813 -11 c0 -14 -2 -14 -9 -3 -5 7 -14 10 -20 7 -6
-4 -11 -3 -11 3 0 11 21 20 33 14 4 -2 7 -12 7 -21z m-2093 -14 c-3 -8 -6 -5
-6 6 -1 11 2 17 5 13 3 -3 4 -12 1 -19z m1328 -9 c-4 -5 -13 -9 -21 -9 -8 0
-14 -5 -14 -12 0 -6 -2 -9 -5 -6 -9 8 6 38 16 32 5 -3 9 0 9 6 0 6 5 8 10 5 6
-4 8 -11 5 -16z m753 -1 c18 -18 14 -28 -10 -27 -13 0 -17 3 -10 6 10 4 10 8
1 19 -14 17 2 19 19 2z m-698 -12 c0 -3 -5 -8 -12 -12 -7 -4 -8 -3 -4 4 7 12
16 16 16 8z m657 -3 c-4 -3 -10 -3 -14 0 -3 4 0 7 7 7 7 0 10 -3 7 -7z m-277
-8 c0 -3 -2 -5 -5 -5 -3 0 -5 2 -5 5 0 3 2 5 5 5 3 0 5 -2 5 -5z m20 0 c0 -3
-2 -5 -5 -5 -3 0 -5 2 -5 5 0 3 2 5 5 5 3 0 5 -2 5 -5z m30 0 c0 -3 -2 -5 -5
-5 -3 0 -5 2 -5 5 0 3 2 5 5 5 3 0 5 -2 5 -5z m40 0 c0 -3 -2 -5 -5 -5 -3 0
-5 2 -5 5 0 3 2 5 5 5 3 0 5 -2 5 -5z m-1843 -22 c-4 -3 -7 0 -7 7 0 7 3 10 7
7 3 -4 3 -10 0 -14z m2003 7 c0 -5 -6 -10 -14 -10 -8 0 -18 5 -21 10 -3 6 3
10 14 10 12 0 21 -4 21 -10z m20 5 c0 -3 -2 -5 -5 -5 -3 0 -5 2 -5 5 0 3 2 5
5 5 3 0 5 -2 5 -5z m210 0 c0 -3 -2 -5 -5 -5 -3 0 -5 2 -5 5 0 3 2 5 5 5 3 0
5 -2 5 -5z m-327 -12 c-13 -2 -33 -2 -45 0 -13 2 -3 4 22 4 25 0 35 -2 23 -4z
m307 -3 c0 -5 -7 -10 -16 -10 -8 0 -12 5 -9 10 3 6 10 10 16 10 5 0 9 -4 9
-10z m-390 -5 c0 -3 -2 -5 -5 -5 -3 0 -5 2 -5 5 0 3 2 5 5 5 3 0 5 -2 5 -5z
m-1820 -15 c0 -5 -5 -10 -11 -10 -5 0 -7 5 -4 10 3 6 8 10 11 10 2 0 4 -4 4
-10z m250 5 c0 -3 -2 -5 -5 -5 -3 0 -5 2 -5 5 0 3 2 5 5 5 3 0 5 -2 5 -5z
m470 -15 c0 -21 -22 -26 -55 -13 -15 5 -14 8 6 19 34 19 49 17 49 -6z m977 13
c-4 -3 -10 -3 -14 0 -3 4 0 7 7 7 7 0 10 -3 7 -7z m103 2 c0 -3 -2 -5 -5 -5
-3 0 -5 2 -5 5 0 3 2 5 5 5 3 0 5 -2 5 -5z m-1531 -26 c-16 -10 -23 -4 -14 10
3 6 11 8 17 5 6 -4 5 -9 -3 -15z m529 -1 c2 -4 21 -8 42 -8 21 0 41 -3 43 -7
3 -5 -17 -8 -43 -8 -27 0 -46 4 -42 9 3 5 -2 6 -12 3 -19 -8 -56 8 -56 23 0
11 64 1 68 -12z m-1038 -10 c0 -6 -6 -5 -15 2 -8 7 -15 14 -15 16 0 2 7 1 15
-2 8 -4 15 -11 15 -16z m591 5 c33 9 115 -4 96 -15 -9 -5 -26 -4 -41 4 -26 11
-68 -1 -89 -27 -5 -5 -5 0 -2 13 4 13 2 22 -5 22 -6 0 -8 5 -4 11 5 8 9 8 14
-1 5 -8 17 -10 31 -7z m122 10 c-7 -2 -19 -2 -25 0 -7 3 -2 5 12 5 14 0 19 -2
13 -5z m914 1 c-3 -3 -12 -4 -19 -1 -8 3 -5 6 6 6 11 1 17 -2 13 -5z m-1570
-21 c-4 -3 -7 0 -7 7 0 7 3 10 7 7 3 -4 3 -10 0 -14z m63 12 c0 -3 -2 -5 -5
-5 -3 0 -5 2 -5 5 0 3 2 5 5 5 3 0 5 -2 5 -5z m79 -7 c-15 -5 -36 -5 -49 0
-19 7 -14 9 26 9 41 0 45 -1 23 -9z m38 -5 c-4 -3 -7 0 -7 7 0 7 3 10 7 7 3
-4 3 -10 0 -14z m608 9 c-26 -3 -34 -6 -23 -11 10 -3 -12 -6 -47 -6 -35 0 -61
3 -57 7 8 8 68 15 127 15 l40 0 -40 -5z m-882 -22 c-3 -11 -9 -20 -14 -20 -11
0 -11 3 -3 24 9 23 23 20 17 -4z m557 10 c0 -5 -6 -10 -14 -10 -8 0 -16 -4
-18 -8 -1 -5 -14 -5 -28 -1 l-25 7 27 1 c15 1 30 6 33 11 3 6 10 10 16 10 5 0
9 -4 9 -10z m2005 -21 c-14 -15 -17 -38 -16 -127 l2 -108 -108 -61 c-59 -34
-135 -75 -169 -91 -77 -39 -88 -52 -80 -97 l7 -35 69 0 c68 0 68 0 75 30 4 16
4 34 1 38 -6 9 201 119 208 111 2 -2 6 -46 7 -98 3 -88 2 -95 -19 -109 -32
-21 -27 -29 19 -35 41 -5 65 -25 50 -40 -4 -4 -75 -10 -157 -13 -82 -3 -356
-14 -609 -25 -253 -10 -481 -19 -507 -19 l-46 0 10 37 c5 21 23 51 40 66 17
15 28 31 24 34 -3 4 -17 -4 -31 -17 l-25 -23 0 95 c0 52 -3 143 -7 201 -6 99
-5 107 13 113 10 3 30 10 44 16 34 14 8 23 -30 9 -29 -9 -30 -9 -30 17 0 15
-9 44 -19 65 l-19 37 36 0 c41 0 428 17 540 24 l73 5 -15 -24 c-11 -17 -16
-48 -16 -98 l0 -74 -90 -37 c-49 -21 -92 -42 -96 -47 -14 -24 -24 -3 -24 54 0
90 -10 100 -93 91 l-67 -7 5 -171 c3 -94 8 -194 11 -222 l5 -52 62 5 c87 7 87
6 87 58 0 32 4 45 14 45 14 0 133 50 169 70 29 17 33 6 36 -92 1 -61 7 -101
17 -115 28 -44 64 -21 64 41 0 32 6 45 33 67 21 19 27 28 17 29 -9 0 -21 -5
-28 -12 -6 -6 -14 -10 -16 -7 -3 3 -8 84 -12 181 l-7 175 37 7 c47 9 47 26 -1
23 -37 -2 -38 -1 -41 33 -2 19 -11 43 -19 53 -9 9 -14 19 -12 20 2 2 144 9
314 16 171 7 312 14 314 17 14 13 19 -12 6 -27z m-2625 18 c0 -2 -9 -15 -21
-28 -19 -21 -21 -33 -16 -101 l5 -77 -56 -27 c-32 -15 -79 -41 -106 -56 -27
-16 -51 -26 -54 -23 -3 3 -6 40 -7 83 l0 77 29 5 c16 3 31 11 34 19 3 10 0 12
-12 8 -10 -4 -58 -7 -107 -7 l-89 0 0 -42 c0 -112 -6 -106 163 -175 84 -34
166 -67 183 -73 l31 -11 5 -130 c4 -115 7 -133 27 -160 13 -17 21 -32 19 -34
-4 -4 -495 -25 -585 -25 -42 0 -73 4 -73 10 0 6 9 10 20 10 17 0 19 8 22 82
l3 82 38 8 c20 4 59 19 87 33 81 41 90 37 90 -40 0 -60 -2 -65 -25 -71 -13 -3
-30 -13 -37 -22 -12 -14 -9 -15 27 -9 22 4 68 7 103 7 l63 0 -3 72 -3 71 -180
76 -180 77 -3 112 -3 112 41 6 c52 8 52 27 0 22 -39 -3 -39 -3 -46 37 -3 22
-13 49 -20 60 -13 20 -12 21 134 24 81 2 210 6 287 11 198 10 215 10 215 7z
m430 -12 c-13 -16 -50 -21 -50 -7 0 15 13 22 38 22 21 0 22 -2 12 -15z m87 8
c-4 -3 -10 -3 -14 0 -3 4 0 7 7 7 7 0 10 -3 7 -7z m496 0 c-7 -2 -21 -2 -30 0
-10 3 -4 5 12 5 17 0 24 -2 18 -5z m237 2 c0 -3 -2 -5 -5 -5 -3 0 -5 2 -5 5 0
3 2 5 5 5 3 0 5 -2 5 -5z m55 -5 c3 -6 -1 -7 -9 -4 -18 7 -21 14 -7 14 6 0 13
-4 16 -10z m25 5 c0 -3 -2 -5 -5 -5 -3 0 -5 2 -5 5 0 3 2 5 5 5 3 0 5 -2 5 -5z
m50 1 c0 -3 -5 -8 -12 -12 -7 -4 -8 -3 -4 4 7 12 16 16 16 8z m-1280 -16 c0
-5 -7 -10 -16 -10 -8 0 -12 5 -9 10 3 6 10 10 16 10 5 0 9 -4 9 -10z m660 0
c20 -6 21 -8 5 -8 -11 0 -31 4 -45 8 -20 6 -21 8 -5 8 11 0 31 -4 45 -8z m317
4 c-3 -3 -12 -4 -19 -1 -8 3 -5 6 6 6 11 1 17 -2 13 -5z m-447 -9 c0 -3 -2 -5
-5 -5 -3 0 -5 2 -5 5 0 3 2 5 5 5 3 0 5 -2 5 -5z m670 -38 c0 -7 -6 -22 -14
-33 -8 -10 -12 -30 -9 -44 3 -20 -3 -33 -32 -59 -20 -18 -34 -35 -31 -39 3 -3
17 5 31 18 14 13 28 21 31 18 3 -4 8 -85 11 -181 l6 -174 -32 -6 c-17 -4 -31
-11 -31 -17 0 -7 12 -9 33 -5 32 6 33 6 34 -30 1 -23 9 -45 23 -60 12 -12 18
-25 13 -27 -4 -2 -62 -5 -128 -6 -66 -1 -209 -7 -319 -13 -109 -6 -201 -8
-204 -5 -3 3 3 15 14 27 17 18 19 34 16 124 l-3 104 68 39 c37 22 119 65 181
97 l112 59 0 48 0 48 -59 0 c-82 0 -91 -5 -91 -50 l0 -37 -106 -52 c-58 -28
-108 -51 -110 -51 -2 0 -4 47 -4 104 l0 104 30 7 c42 9 37 25 -8 25 -27 0 -41
6 -50 21 -7 12 -12 22 -10 24 2 1 134 8 293 15 160 7 292 14 294 16 11 10 51
3 51 -9z m-670 -25 c0 -4 -7 -18 -16 -30 -11 -16 -14 -34 -10 -60 3 -20 7 -87
8 -148 2 -124 -9 -156 -74 -204 -30 -22 -44 -25 -142 -28 l-109 -4 6 -68 c3
-38 11 -79 17 -90 6 -12 10 -23 8 -25 -2 -2 -59 -5 -128 -7 l-125 -3 0 130 c0
72 -2 182 -5 245 l-5 115 48 14 c47 14 63 31 29 31 -9 0 -32 -4 -50 -9 -32
-10 -32 -10 -32 27 0 20 -9 51 -20 67 l-20 30 273 11 c149 6 289 11 310 12 20
1 37 -1 37 -6z m-944 -149 c-11 -11 -19 6 -11 24 8 17 8 17 12 0 3 -10 2 -21
-1 -24z m1981 11 c-3 -3 -12 -4 -19 -1 -8 3 -5 6 6 6 11 1 17 -2 13 -5z m-681
-30 c1 -9 0 -13 -4 -10 -3 4 -7 14 -8 22 -1 9 0 13 4 10 3 -4 7 -14 8 -22z
m654 11 c0 -3 -2 -5 -5 -5 -3 0 -5 2 -5 5 0 3 2 5 5 5 3 0 5 -2 5 -5z m300
-20 c0 -3 -2 -5 -5 -5 -3 0 -5 2 -5 5 0 3 2 5 5 5 3 0 5 -2 5 -5z m-2000 -10
c0 -3 -2 -5 -5 -5 -3 0 -5 2 -5 5 0 3 2 5 5 5 3 0 5 -2 5 -5z m47 -2 c-4 -3
-10 -3 -14 0 -3 4 0 7 7 7 7 0 10 -3 7 -7z m1658 -12 c3 -5 1 -12 -5 -16 -5
-3 -10 1 -10 9 0 18 6 21 15 7z m282 3 c-3 -3 -12 -4 -19 -1 -8 3 -5 6 6 6 11
1 17 -2 13 -5z m-1990 -24 c1 -13 -4 -20 -15 -20 -15 0 -15 2 -2 11 12 9 11
10 -7 6 -13 -3 -23 -3 -23 -1 0 3 10 9 23 14 12 5 22 9 22 9 1 1 1 -8 2 -19z
m1940 13 c-4 -3 -10 -3 -14 0 -3 4 0 7 7 7 7 0 10 -3 7 -7z m98 -3 c3 -5 4
-10 1 -10 -3 0 -8 5 -11 10 -3 6 -4 10 -1 10 3 0 8 -4 11 -10z m689 1 c7 -11
-22 -23 -35 -15 -5 3 -7 10 -4 15 8 12 32 12 39 0z m-809 -11 c3 -5 4 -10 1
-10 -3 0 -8 5 -11 10 -3 6 -4 10 -1 10 3 0 8 -4 11 -10z m75 0 c-20 -13 -43
-13 -35 0 3 6 16 10 28 10 18 0 19 -2 7 -10z m-220 -5 c0 -3 -2 -5 -5 -5 -3 0
-5 2 -5 5 0 3 2 5 5 5 3 0 5 -2 5 -5z m170 0 c0 -3 -2 -5 -5 -5 -3 0 -5 2 -5
5 0 3 2 5 5 5 3 0 5 -2 5 -5z m-180 -57 c0 -16 6 -28 13 -28 7 0 12 -13 12
-30 0 -16 -3 -30 -7 -30 -4 0 -4 -8 -1 -17 5 -12 2 -15 -10 -10 -13 5 -18 -1
-23 -21 -10 -46 -12 -48 -13 -11 -1 24 4 39 14 43 17 6 21 61 5 71 -5 3 -10
25 -10 48 0 31 3 38 10 27 5 -8 10 -27 10 -42z m-1840 37 c0 -3 -2 -5 -5 -5
-3 0 -5 2 -5 5 0 3 2 5 5 5 3 0 5 -2 5 -5z m30 0 c0 -3 -2 -5 -5 -5 -3 0 -5 2
-5 5 0 3 2 5 5 5 3 0 5 -2 5 -5z m50 -9 c0 -2 -7 -6 -15 -10 -8 -3 -15 -1 -15
4 0 6 7 10 15 10 8 0 15 -2 15 -4z m1807 -13 c-4 -3 -10 -3 -14 0 -3 4 0 7 7
7 7 0 10 -3 7 -7z m-1077 -8 c0 -3 -2 -5 -5 -5 -3 0 -5 2 -5 5 0 3 2 5 5 5 3
0 5 -2 5 -5z m1285 -5 c3 -5 1 -10 -4 -10 -6 0 -11 5 -11 10 0 6 2 10 4 10 3
0 8 -4 11 -10z m-1285 -25 c0 -3 -2 -5 -5 -5 -3 0 -5 2 -5 5 0 3 2 5 5 5 3 0
5 -2 5 -5z m-650 -10 c0 -3 -2 -5 -5 -5 -3 0 -5 2 -5 5 0 3 2 5 5 5 3 0 5 -2
5 -5z m1839 -11 c-28 -15 -51 -18 -29 -4 13 8 12 10 -2 10 -10 0 -18 -4 -18
-10 0 -14 -17 -12 -23 3 -3 9 9 12 45 13 47 1 48 0 27 -12z m-1169 -8 c0 -3
-5 -8 -12 -12 -7 -4 -8 -3 -4 4 7 12 16 16 16 8z m1310 -11 c0 -3 -2 -5 -5 -5
-3 0 -5 2 -5 5 0 3 2 5 5 5 3 0 5 -2 5 -5z m-1340 -10 c0 -3 -2 -5 -5 -5 -3 0
-5 2 -5 5 0 3 2 5 5 5 3 0 5 -2 5 -5z m-13 -32 c-4 -3 -7 0 -7 7 0 7 3 10 7 7
3 -4 3 -10 0 -14z m23 12 c0 -3 -2 -5 -5 -5 -3 0 -5 2 -5 5 0 3 2 5 5 5 3 0 5
-2 5 -5z m1660 0 c0 -3 -2 -5 -5 -5 -3 0 -5 2 -5 5 0 3 2 5 5 5 3 0 5 -2 5 -5z
m28 -30 c-3 -3 -9 2 -12 12 -6 14 -5 15 5 6 7 -7 10 -15 7 -18z m-2911 -2 c-4
-3 -7 0 -7 7 0 7 3 10 7 7 3 -4 3 -10 0 -14z m23 12 c0 -3 -2 -5 -5 -5 -3 0
-5 2 -5 5 0 3 2 5 5 5 3 0 5 -2 5 -5z m25 -24 c-3 -6 -18 -11 -33 -11 l-27 1
30 13 c32 14 41 13 30 -3z m2212 -8 c-4 -3 -7 0 -7 7 0 7 3 10 7 7 3 -4 3 -10
0 -14z m-1073 -15 c-5 -7 -9 -19 -11 -27 -2 -19 -31 -46 -39 -38 -4 3 -3 18 0
34 5 18 10 23 15 15 5 -9 11 -4 20 14 6 15 14 24 17 21 3 -3 2 -12 -2 -19z
m33 -25 c-4 -3 -7 0 -7 7 0 7 3 10 7 7 3 -4 3 -10 0 -14z m-17 2 c0 -3 -2 -5
-5 -5 -3 0 -5 2 -5 5 0 3 2 5 5 5 3 0 5 -2 5 -5z m-150 -55 c0 -5 -17 -9 -37
-9 l-38 2 35 7 c19 4 36 8 38 9 1 0 2 -3 2 -9z m170 5 c0 -3 -2 -5 -5 -5 -3 0
-5 2 -5 5 0 3 2 5 5 5 3 0 5 -2 5 -5z m-291 -34 c-6 -2 -18 4 -27 13 -15 15
-15 15 10 4 15 -7 23 -15 17 -17z m38 22 c-4 -3 -10 -3 -14 0 -3 4 0 7 7 7 7
0 10 -3 7 -7z m76 -20 c-7 -2 -19 -2 -25 0 -7 3 -2 5 12 5 14 0 19 -2 13 -5z
m-793 -8 c0 -3 -2 -5 -5 -5 -3 0 -5 2 -5 5 0 3 2 5 5 5 3 0 5 -2 5 -5z m857
-2 c-4 -3 -10 -3 -14 0 -3 4 0 7 7 7 7 0 10 -3 7 -7z m93 -3 c0 -5 -7 -7 -15
-4 -8 4 -15 8 -15 10 0 2 7 4 15 4 8 0 15 -4 15 -10z m-60 -20 c-8 -5 -28 -9
-45 -9 -30 2 -30 2 5 9 51 11 57 11 40 0z m-219 -27 c13 -16 12 -17 -3 -4 -17
13 -22 21 -14 21 2 0 10 -8 17 -17z m2112 -10 c-7 -2 -21 -2 -30 0 -10 3 -4 5
12 5 17 0 24 -2 18 -5z m-2089 -21 c2 -4 -4 -8 -14 -8 -10 0 -16 4 -14 8 3 4
9 8 14 8 5 0 11 -4 14 -8z m236 4 c0 -3 -5 -8 -12 -12 -7 -4 -8 -3 -4 4 7 12
16 16 16 8z m1010 -11 c0 -3 -2 -5 -5 -5 -3 0 -5 2 -5 5 0 3 2 5 5 5 3 0 5 -2
5 -5z m-293 -21 c-3 -3 -12 -4 -19 -1 -8 3 -5 6 6 6 11 1 17 -2 13 -5z m-197
-9 c0 -3 -2 -5 -5 -5 -3 0 -5 2 -5 5 0 3 2 5 5 5 3 0 5 -2 5 -5z M2438 3759
c-10 -5 -18 -16 -18 -24 0 -13 28 -14 183 -9 181 6 182 6 231 -20 27 -14 53
-23 57 -21 4 3 42 -2 84 -11 42 -9 79 -14 81 -11 2 2 -31 12 -73 21 -43 10
-100 26 -128 37 -27 10 -72 23 -100 28 -78 15 -297 22 -317 10z M2540 3699
c-30 -10 -75 -18 -99 -18 -24 -1 -41 -4 -38 -7 9 -9 397 17 403 27 3 5 -2 6
-10 3 -9 -3 -16 -1 -16 4 0 19 -178 12 -240 -9z M2210 3575 c0 -3 2 -5 5 -5 3
0 5 2 5 5 0 3 -2 5 -5 5 -3 0 -5 -2 -5 -5z M2270 3515 c0 -3 2 -5 5 -5 3 0 5
2 5 5 0 3 -2 5 -5 5 -3 0 -5 -2 -5 -5z M2293 3494 c-13 -14 -23 -31 -23 -37 0
-7 11 1 25 17 14 16 25 33 25 38 0 12 -3 10 -27 -18z M2228 3471 c-7 -25 6
-51 24 -51 7 0 7 4 0 13 -5 6 -12 23 -14 37 l-3 25 -7 -24z M1900 3200 c0 -5
5 -10 11 -10 5 0 7 5 4 10 -3 6 -8 10 -11 10 -2 0 -4 -4 -4 -10z M1413 3487
c-35 -17 -63 -35 -63 -39 0 -8 104 46 125 64 15 13 4 9 -62 -25z M1636 3442
c-3 -5 -56 -24 -118 -42 -62 -18 -153 -48 -201 -68 -48 -19 -90 -32 -93 -29
-3 3 7 24 22 46 15 23 25 44 22 47 -7 6 -42 -49 -57 -89 l-11 -27 48 2 c40 2
63 -6 149 -50 106 -53 123 -59 123 -42 0 6 -9 10 -20 10 -11 0 -20 4 -20 9 0
5 -9 13 -20 16 -11 3 -26 12 -32 18 -7 7 -37 23 -66 36 -60 28 -59 31 23 56
33 10 77 24 97 31 35 13 37 12 36 -9 -1 -12 -6 -27 -11 -34 -11 -16 33 -28 68
-19 26 7 37 48 13 45 -43 -5 -55 26 -14 37 34 8 43 1 51 -43 5 -29 3 -40 -11
-50 -26 -19 -109 -17 -129 3 -23 23 -27 13 -6 -15 20 -26 111 -44 111 -22 0 7
4 10 9 7 5 -3 14 1 21 9 7 8 15 13 19 11 4 -3 8 28 10 67 1 39 4 75 7 78 2 4
0 10 -5 13 -5 4 -12 2 -15 -2z M1310 3425 c0 -3 2 -5 5 -5 3 0 5 2 5 5 0 3 -2
5 -5 5 -3 0 -5 -2 -5 -5z M1199 3382 c-15 -13 -19 -21 -11 -26 7 -4 12 -2 12
5 0 6 8 18 18 25 9 7 14 14 11 14 -4 0 -17 -8 -30 -18z M1180 3335 c0 -3 2 -5
5 -5 3 0 5 2 5 5 0 3 -2 5 -5 5 -3 0 -5 -2 -5 -5z M1166 3312 c-2 -4 -1 -14 5
-22 7 -12 9 -10 9 8 0 23 -5 28 -14 14z M1445 3250 c3 -5 8 -10 11 -10 3 0 2
5 -1 10 -3 6 -8 10 -11 10 -3 0 -2 -4 1 -10z M1470 3255 c0 -3 2 -5 5 -5 3 0
5 2 5 5 0 3 -2 5 -5 5 -3 0 -5 -2 -5 -5z M1600 3245 c0 -3 2 -5 5 -5 3 0 5 2
5 5 0 3 -2 5 -5 5 -3 0 -5 -2 -5 -5z M2615 3320 c-3 -6 1 -7 9 -4 18 7 21 14
7 14 -6 0 -13 -4 -16 -10z M2587 3283 c-10 -29 -1 -59 30 -100 20 -28 30 -33
61 -32 20 1 28 3 17 6 -11 2 -30 6 -41 8 -12 3 -24 11 -27 18 -4 12 4 12 48 2
30 -7 56 -10 59 -7 15 14 3 22 -33 22 -48 0 -98 38 -103 78 -3 26 -4 26 -11 5z
M2640 3266 c19 -19 70 -32 70 -18 0 5 -14 15 -31 21 -43 15 -56 14 -39 -3z
M2455 3160 c3 -5 8 -10 11 -10 3 0 2 5 -1 10 -3 6 -8 10 -11 10 -3 0 -2 -4 1
-10z M950 3080 c0 -7 3 -10 7 -7 3 4 3 10 0 14 -4 3 -7 0 -7 -7z M930 3005 c0
-3 2 -5 5 -5 3 0 5 2 5 5 0 3 -2 5 -5 5 -3 0 -5 -2 -5 -5z M2610 2863 c-9 -4
0 -11 25 -18 34 -11 22 -12 -87 -7 -85 3 -128 2 -128 -5 0 -6 32 -11 80 -11
97 0 140 -9 140 -28 0 -17 12 -18 27 -3 13 13 75 15 113 5 l25 -7 -25 20 c-46
38 -137 67 -170 54z M2560 2475 c0 -3 2 -5 5 -5 3 0 5 2 5 5 0 3 -2 5 -5 5 -3
0 -5 -2 -5 -5z M2580 2445 c0 -3 2 -5 5 -5 3 0 5 2 5 5 0 3 -2 5 -5 5 -3 0 -5
-2 -5 -5z M2590 2425 c0 -3 2 -5 5 -5 3 0 5 2 5 5 0 3 -2 5 -5 5 -3 0 -5 -2
-5 -5z M1911 2963 c61 -74 194 -172 211 -155 7 7 0 15 -23 27 -18 10 -65 46
-106 81 -69 60 -113 86 -82 47z M2025 2940 c3 -5 8 -10 11 -10 3 0 2 5 -1 10
-3 6 -8 10 -11 10 -3 0 -2 -4 1 -10z M1870 2923 c0 -4 5 -15 10 -23 8 -13 10
-13 10 2 0 9 -4 20 -10 23 -5 3 -10 3 -10 -2z M1790 2919 c0 -4 7 -20 15 -35
8 -16 15 -22 15 -13 0 14 -29 61 -30 48z M1740 2835 c0 -3 2 -5 5 -5 3 0 5 2
5 5 0 3 -2 5 -5 5 -3 0 -5 -2 -5 -5z M1890 2813 c14 -22 30 -22 30 -1 0 6 -3
8 -7 5 -3 -4 -13 -1 -21 6 -13 11 -14 9 -2 -10z M1930 2765 c0 -3 2 -5 5 -5 3
0 5 2 5 5 0 3 -2 5 -5 5 -3 0 -5 -2 -5 -5z M2164 2708 c-4 -7 -3 -8 4 -4 7 4
12 9 12 12 0 8 -9 4 -16 -8z M2200 2705 c0 -3 2 -5 5 -5 3 0 5 2 5 5 0 3 -2 5
-5 5 -3 0 -5 -2 -5 -5z M2676 2197 c3 -10 9 -15 12 -12 3 3 0 11 -7 18 -10 9
-11 8 -5 -6z M2711 2174 c-1 -6 -17 -28 -36 -50 -37 -42 -41 -49 -25 -59 6 -3
10 1 10 10 0 10 5 13 12 9 6 -4 8 -3 4 4 -3 5 6 24 20 41 14 17 23 37 21 43
-3 7 -6 8 -6 2z M2635 2140 c-27 -30 -12 -34 15 -5 13 14 19 25 13 25 -5 0
-18 -9 -28 -20z M2832 2060 c0 -14 2 -19 5 -12 2 6 2 18 0 25 -3 6 -5 1 -5
-13z M2890 2015 c0 -3 2 -5 5 -5 3 0 5 2 5 5 0 3 -2 5 -5 5 -3 0 -5 -2 -5 -5z
M2890 1972 c6 -13 14 -21 18 -18 3 4 -2 14 -12 24 -18 16 -18 16 -6 -6z M2885
1930 c3 -5 8 -10 11 -10 3 0 2 5 -1 10 -3 6 -8 10 -11 10 -3 0 -2 -4 1 -10z
M2150 2545 c0 -3 2 -5 5 -5 3 0 5 2 5 5 0 3 -2 5 -5 5 -3 0 -5 -2 -5 -5z
M2335 1929 c-7 -29 -1 -48 10 -37 9 8 13 68 4 68 -4 0 -10 -14 -14 -31z M3677
1773 c-13 -13 -7 -21 13 -16 11 3 17 9 14 14 -6 11 -18 12 -27 2z M1030 1688
l0 -93 23 27 c12 15 39 35 60 43 36 15 37 17 37 65 l0 50 -60 0 -60 0 0 -92z
M1111 1540 c-13 -11 -31 -20 -41 -20 -23 0 -30 -19 -30 -85 0 -60 3 -63 69
-55 l46 5 3 88 c3 95 -3 103 -47 67z M950 1430 c0 -7 3 -10 7 -7 3 4 3 10 0
14 -4 3 -7 0 -7 -7z M3380 1763 c-27 -11 -30 -27 -24 -163 7 -157 13 -169 71
-154 l38 9 0 148 c0 120 -3 150 -15 157 -16 11 -47 12 -70 3z M2743 1583 c4
-3 10 -3 14 0 3 4 0 7 -7 7 -7 0 -10 -3 -7 -7z M2275 1718 c3 -8 6 -85 8 -173
l2 -160 58 -3 57 -3 -2 173 -3 173 -62 3 c-49 2 -62 0 -58 -10z m62 -70 c-3
-8 -6 -5 -6 6 -1 11 2 17 5 13 3 -3 4 -12 1 -19z m0 -85 c-4 -3 -7 0 -7 7 0 7
3 10 7 7 3 -4 3 -10 0 -14z m10 -75 c-3 -7 -5 -2 -5 12 0 14 2 19 5 13 2 -7 2
-19 0 -25z m-17 -3 c0 -3 -2 -5 -5 -5 -3 0 -5 2 -5 5 0 3 2 5 5 5 3 0 5 -2 5
-5z M1480 1730 c0 -5 7 -10 16 -10 8 0 12 5 9 10 -3 6 -10 10 -16 10 -5 0 -9
-4 -9 -10z M1420 1545 c0 -3 2 -5 5 -5 3 0 5 2 5 5 0 3 -2 5 -5 5 -3 0 -5 -2
-5 -5z M1380 1390 c0 -5 7 -10 15 -10 8 0 15 5 15 10 0 6 -7 10 -15 10 -8 0
-15 -4 -15 -10z M4010 1370 c0 -7 3 -10 7 -7 3 4 3 10 0 14 -4 3 -7 0 -7 -7z
M3788 1113 l-48 -4 0 -107 0 -107 18 35 c12 25 34 44 80 68 65 35 71 46 52 96
-7 19 -16 25 -32 24 -13 -1 -44 -3 -70 -5z m62 -58 c0 -3 -2 -5 -5 -5 -3 0 -5
2 -5 5 0 3 2 5 5 5 3 0 5 -2 5 -5z M1118 793 c7 -3 16 -2 19 1 4 3 -2 6 -13 5
-11 0 -14 -3 -6 -6z M2567 836 c7 -36 -37 -73 -119 -100 -13 -4 -18 -16 -18
-38 0 -54 9 -59 86 -56 58 3 69 6 68 21 0 9 -1 58 -2 107 -1 50 -6 90 -11 90
-4 0 -6 -11 -4 -24z m-27 -131 c0 -3 -2 -5 -5 -5 -3 0 -5 2 -5 5 0 3 2 5 5 5
3 0 5 -2 5 -5z M1770 998 c0 -13 3 -53 7 -90 l6 -68 58 0 c88 0 89 1 89 84 0
90 -6 96 -92 96 -64 0 -68 -1 -68 -22z m70 -53 c0 -3 -2 -5 -5 -5 -3 0 -5 2
-5 5 0 3 2 5 5 5 3 0 5 -2 5 -5z m40 -30 c0 -3 -2 -5 -5 -5 -3 0 -5 2 -5 5 0
3 2 5 5 5 3 0 5 -2 5 -5z m-20 -9 c0 -2 -7 -6 -15 -10 -8 -3 -15 -1 -15 4 0 6
7 10 15 10 8 0 15 -2 15 -4z M1582 3935 c0 -16 2 -22 5 -12 2 9 2 23 0 30 -3
6 -5 -1 -5 -18z M3363 3953 c4 -3 10 -3 14 0 3 4 0 7 -7 7 -7 0 -10 -3 -7 -7z
M2180 3942 c0 -6 5 -14 12 -18 8 -5 -14 -31 -63 -77 -53 -51 -60 -59 -24 -31
28 21 65 52 83 69 l33 31 -20 18 c-12 11 -21 14 -21 8z M2444 3915 c-83 -15
-188 -44 -181 -51 2 -2 29 2 59 10 30 8 90 20 134 26 82 13 131 30 84 29 -14
-1 -57 -7 -96 -14z M1572 3880 c0 -14 2 -19 5 -12 2 6 2 18 0 25 -3 6 -5 1 -5
-13z M2240 3855 c0 -3 2 -5 5 -5 3 0 5 2 5 5 0 3 -2 5 -5 5 -3 0 -5 -2 -5 -5z
M1660 3845 c0 -3 2 -5 5 -5 3 0 5 2 5 5 0 3 -2 5 -5 5 -3 0 -5 -2 -5 -5z
M1650 3815 c0 -3 2 -5 5 -5 3 0 5 2 5 5 0 3 -2 5 -5 5 -3 0 -5 -2 -5 -5z
M1315 2990 c-3 -5 -1 -10 4 -10 6 0 11 5 11 10 0 6 -2 10 -4 10 -3 0 -8 -4
-11 -10z M1310 2965 c0 -3 2 -5 5 -5 3 0 5 2 5 5 0 3 -2 5 -5 5 -3 0 -5 -2 -5
-5z M1330 2965 c0 -3 2 -5 5 -5 3 0 5 2 5 5 0 3 -2 5 -5 5 -3 0 -5 -2 -5 -5z
M1600 2620 c0 -7 3 -10 7 -7 3 4 3 10 0 14 -4 3 -7 0 -7 -7z M1614 2596 c-3
-8 -32 -30 -64 -50 -77 -48 -105 -87 -104 -146 3 -99 92 -389 130 -420 7 -7
12 -15 10 -19 -2 -3 12 -7 31 -9 19 -1 44 -7 55 -13 26 -14 31 -8 13 18 -8 11
-35 26 -60 32 -44 11 -48 15 -76 77 -17 36 -28 73 -27 82 3 10 18 -12 36 -52
41 -87 53 -79 18 12 -25 64 -28 69 -53 64 -18 -3 -24 -1 -19 7 4 6 14 11 22
11 27 0 13 102 -21 145 -14 19 -15 17 -9 -20 3 -22 12 -50 20 -62 18 -29 18
-33 -5 -33 -16 0 -22 14 -36 91 -9 50 -13 103 -10 119 7 31 67 91 128 129 20
12 37 29 37 37 0 18 -9 18 -16 0z M2150 2420 c-6 -47 15 -110 37 -110 13 0 13
3 3 16 -8 8 -19 36 -26 62 -7 26 -13 40 -14 32z M1999 2373 c-13 -15 -12 -15
9 -4 23 12 28 21 13 21 -5 0 -15 -7 -22 -17z M1960 2355 c0 -3 2 -5 5 -5 3 0
5 2 5 5 0 3 -2 5 -5 5 -3 0 -5 -2 -5 -5z M2068 2339 c-9 -9 -55 -30 -102 -45
-47 -16 -86 -32 -86 -36 0 -23 46 -119 78 -162 20 -28 47 -80 60 -116 12 -36
21 -52 20 -36 -3 26 1 30 62 53 36 14 78 27 93 30 16 3 26 11 24 17 -3 6 -30
76 -61 156 -32 80 -60 148 -64 151 -4 3 -14 -2 -24 -12z m16 -59 c-25 -21
-155 -63 -166 -52 -12 12 -6 16 102 55 57 21 89 20 64 -3z m26 -61 c0 -25 -6
-33 -37 -46 -59 -25 -129 -29 -137 -8 -9 25 -2 31 61 49 32 9 65 21 73 26 27
18 40 11 40 -21z m30 -62 c0 -25 -119 -70 -152 -58 -25 9 -20 13 52 36 30 10
59 21 65 26 14 13 35 11 35 -4z m23 -63 c3 -20 -2 -33 -21 -50 -25 -24 -62
-32 -62 -14 0 6 6 10 14 10 7 0 19 6 26 14 10 13 7 13 -19 3 -17 -6 -31 -17
-31 -23 0 -17 -43 -26 -52 -11 -15 24 -7 38 30 53 20 8 48 21 62 29 36 21 47
18 53 -11z M2050 2035 c0 -3 2 -5 5 -5 3 0 5 2 5 5 0 3 -2 5 -5 5 -3 0 -5 -2
-5 -5z M1680 2257 c0 -18 28 -42 37 -33 9 8 -9 38 -25 44 -7 2 -12 -3 -12 -11z
M2203 2240 c3 -14 11 -56 17 -95 12 -78 20 -96 19 -44 0 45 -22 145 -33 156
-5 4 -6 -3 -3 -17z M1730 2232 c0 -6 5 -14 10 -17 6 -3 10 -14 10 -24 0 -10
11 -26 25 -35 23 -15 24 -15 18 1 -4 10 -11 23 -15 28 -41 49 -48 57 -48 47z
M1700 2177 c0 -14 25 -84 54 -154 10 -24 24 -43 32 -43 19 0 18 17 -1 28 -9 4
-18 21 -21 37 -3 15 -11 37 -19 49 -20 27 -19 33 8 40 21 6 20 7 -10 22 -18 9
-30 20 -27 25 3 5 0 9 -5 9 -6 0 -11 -6 -11 -13z M1610 2114 c1 -16 29 -60 29
-44 0 8 -6 24 -14 34 -8 11 -15 16 -15 10z M1760 2111 c0 -5 7 -11 14 -14 10
-4 13 -1 9 9 -6 15 -23 19 -23 5z M1929 2071 c30 -74 91 -188 91 -170 0 21
-85 205 -99 214 -6 3 -2 -16 8 -44z M2240 2055 c0 -3 2 -5 5 -5 3 0 5 2 5 5 0
3 -2 5 -5 5 -3 0 -5 -2 -5 -5z M1640 2045 c0 -3 2 -5 5 -5 3 0 5 2 5 5 0 3 -2
5 -5 5 -3 0 -5 -2 -5 -5z M1650 2025 c0 -3 2 -5 5 -5 3 0 5 2 5 5 0 3 -2 5 -5
5 -3 0 -5 -2 -5 -5z M2210 2010 c0 -7 3 -10 7 -7 3 4 3 10 0 14 -4 3 -7 0 -7
-7z M2200 1975 c0 -3 2 -5 5 -5 3 0 5 2 5 5 0 3 -2 5 -5 5 -3 0 -5 -2 -5 -5z
M1600 1932 c0 -15 33 -40 64 -48 21 -5 27 -4 22 5 -4 6 -13 11 -20 11 -7 0
-25 9 -40 21 -14 11 -26 16 -26 11z M1710 1915 c0 -3 2 -5 5 -5 3 0 5 2 5 5 0
3 -2 5 -5 5 -3 0 -5 -2 -5 -5z M3290 505 c0 -3 2 -5 5 -5 3 0 5 2 5 5 0 3 -2
5 -5 5 -3 0 -5 -2 -5 -5z M3260 485 c0 -3 2 -5 5 -5 3 0 5 2 5 5 0 3 -2 5 -5
5 -3 0 -5 -2 -5 -5z M820 431 c0 -5 5 -13 10 -16 6 -3 10 -2 10 4 0 5 -4 13
-10 16 -5 3 -10 2 -10 -4z M850 405 c0 -3 2 -5 5 -5 3 0 5 2 5 5 0 3 -2 5 -5
5 -3 0 -5 -2 -5 -5z" style=""></path></g></g>
</g></g></g>
</g></g>
<style id="breath-927bc43e-3c14-4d4d-b4bb-cbbd8135621f" data-anikit="">@keyframes breath-927bc43e-3c14-4d4d-b4bb-cbbd8135621f
{
  0% {
    animation-timing-function: cubic-bezier(0.9647,0.2413,-0.0705,0.7911);
    transform: scale(0.9099999999999999);
  }
  51% {
    animation-timing-function: cubic-bezier(0.9226,0.2631,-0.0308,0.7628);
    transform: scale(1.02994);
  }
  100% {
    transform: scale(0.9099999999999999);
  }
}

@keyframes colorChange {
  0% {
    filter: blur(0);
    fill: #6825a8;
  }
  50% {
    filter: blur(10px);
    fill: #231549;
  }
  70% {
    filter: blur(15px);
  }
  100% {
    filter: blur(10px);
    fill: #0f52ee;
  }
}

#bos-mascot {
  animation: colorChange 6s infinite;
}

</style>
</svg>